<svg id="svg" xmlns="http://www.w3.org/2000/svg" xmlns:xlink="http://www.w3.org/1999/xlink" width="400" height="400" viewBox="0, 0, 400,400"><g id="svgg"><path id="path0" d="M7.037 200.000 L 7.037 392.963 200.000 392.963 L 392.963 392.963 392.963 200.000 L 392.963 7.037 200.000 7.037 L 7.037 7.037 7.037 200.000 M381.481 200.000 L 381.481 381.481 200.000 381.481 L 18.519 381.481 18.519 200.000 L 18.519 18.519 200.000 18.519 L 381.481 18.519 381.481 200.000 M99.259 210.556 L 99.259 297.407 197.222 297.407 L 295.185 297.407 295.176 275.463 C 295.163 247.183,294.816 243.918,290.949 235.709 C 284.466 221.947,269.179 211.067,255.809 210.698 C 254.756 210.669,255.561 210.439,258.322 209.980 C 276.427 206.969,290.019 193.959,294.284 175.556 C 294.852 173.107,294.946 169.869,295.084 148.241 L 295.241 123.704 197.250 123.704 L 99.259 123.704 99.259 210.556 " stroke="none" fill="#000000" fill-rule="evenodd"></path></g></svg>